<svg xmlns="http://www.w3.org/2000/svg" viewBox="0 0 50 50" style="enable-background:new 0 0 50 50" xml:space="preserve"><style>.st1{fill:#d41443}</style><ellipse cx="25.6" cy="28.6" rx="20.1" ry="21.3" style="fill:#fff" id="Layer_2"/><g id="Layer_1"><path class="st1" d="M190 491C75 456 6 365 6 250 6 156 54 74 133 33c41-21 47-6 9 23-27 22-32 32-32 69 0 26-6 47-15 55-18 15-20 54-2 68 7 6 14 26 15 44 5 66 76 128 147 128s142-62 147-128c1-18 8-38 15-44 18-14 16-53-2-68-9-8-15-29-15-55 0-37-5-47-32-69-42-33-30-45 17-16 66 41 115 130 115 209 0 158-164 286-310 242z" transform="matrix(.1 0 0 -.1 0 50)"/><path class="st1" d="M203 375c-18-8-33-18-33-24 0-11 54-31 85-31s85 20 85 31c0 12-62 39-87 39-10-1-33-7-50-15zM146 313c-3-4-6-17-6-30 0-23 1-23 115-23s115 0 115 23c0 34-9 38-41 22-36-19-112-19-148 0-16 8-31 11-35 8zM117 224c-16-17 11-24 89-24h84v-35c0-19 5-35 10-35 6 0 10 15 10 34 0 33 2 35 40 38 22 2 40 8 40 13 0 11-262 20-273 9z" transform="matrix(.1 0 0 -.1 0 50)"/><path class="st1" d="M140 136c0-55 19-66 115-66s115 11 115 66c0 24-5 34-15 34-9 0-15-9-15-24 0-56-76-61-87-6-5 29-8 30-59 30h-54v-34zM202 23c6-32 108-29 108 2 0 11-13 15-56 15-47 0-55-3-52-17z" transform="matrix(.1 0 0 -.1 0 50)"/></g></svg>