<?xml version="1.0" encoding="utf-8"?>
<!-- Generator: Adobe Illustrator 24.1.2, SVG Export Plug-In . SVG Version: 6.00 Build 0)  -->
<svg version="1.1" xmlns="http://www.w3.org/2000/svg" xmlns:xlink="http://www.w3.org/1999/xlink" x="0px" y="0px"
	 viewBox="0 0 50 50" style="enable-background:new 0 0 50 50;" xml:space="preserve">
<style type="text/css">
	.st0{fill:#FFFFFF;}
	.st1{fill:#D41443;}
</style>
<g id="Layer_2">
	<ellipse class="st0" cx="25.6" cy="28.6" rx="20.1" ry="21.3"/>
</g>
<g id="Layer_1">
	<g transform="translate(0.000000,50.000000) scale(0.100000,-0.100000)">
		<path class="st1" d="M190,491C75,456,6,365,6,250C6,156,54,74,133,33c41-21,47-6,9,23c-27,22-32,32-32,69c0,26-6,47-15,55
			c-18,15-20,54-2,68c7,6,14,26,15,44c5,66,76,128,147,128s142-62,147-128c1-18,8-38,15-44c18-14,16-53-2-68c-9-8-15-29-15-55
			c0-37-5-47-32-69c-42-33-30-45,17-16c66,41,115,130,115,209C500,407,336,535,190,491z"/>
		<path class="st1" d="M203,375c-18-8-33-18-33-24c0-11,54-31,85-31s85,20,85,31c0,12-62,39-87,39C243,389,220,383,203,375z"/>
		<path class="st1" d="M146,313c-3-4-6-17-6-30c0-23,1-23,115-23s115,0,115,23c0,34-9,38-41,22c-36-19-112-19-148,0
			C165,313,150,316,146,313z"/>
		<path class="st1" d="M117,224c-16-17,11-24,89-24h84v-35c0-19,5-35,10-35c6,0,10,15,10,34c0,33,2,35,40,38c22,2,40,8,40,13
			C390,226,128,235,117,224z"/>
		<path class="st1" d="M140,136c0-55,19-66,115-66s115,11,115,66c0,24-5,34-15,34c-9,0-15-9-15-24c0-56-76-61-87-6c-5,29-8,30-59,30
			h-54V136z"/>
		<path class="st1" d="M202,23c6-32,108-29,108,2c0,11-13,15-56,15C207,40,199,37,202,23z"/>
	</g>
</g>
</svg>
